<?xml version="1.0" encoding="utf-8"?>
<!-- Generator: Adobe Illustrator 25.4.1, SVG Export Plug-In . SVG Version: 6.00 Build 0)  -->
<svg version="1.1" id="Layer_1" xmlns="http://www.w3.org/2000/svg" xmlns:xlink="http://www.w3.org/1999/xlink" x="0px" y="0px"
	 viewBox="0 0 64 64" style="enable-background:new 0 0 64 64;" xml:space="preserve">
<style type="text/css">
	.st0{fill:#91C0F8;}
	.st1{fill:#91C0F8;stroke:#FFFFFF;stroke-width:0.72;stroke-linejoin:round;stroke-miterlimit:2.4;}
	.st2{fill:#57A0EE;stroke:#FFFFFF;stroke-width:1.2;stroke-linejoin:round;}
</style>
<g>
	<path class="st0" d="M22.7,48l1.9-0.6c1.4-0.4,2.8-0.3,4.1,0.4c1,0.5,2.1,0.8,3.2,0.8c1.1,0,2.2-0.3,3.2-0.8
		c1.2-0.7,2.7-0.8,4.1-0.4l1.9,0.6c0.4,0.1,0.8-0.1,0.9-0.5c0.1-0.4-0.1-0.8-0.5-0.9L39.6,46c-1.7-0.6-3.6-0.4-5.2,0.5
		c-1.5,0.8-3.5,0.8-5,0c-1.6-0.9-3.5-1.1-5.2-0.5l-1.9,0.6c-0.4,0.1-0.6,0.5-0.5,0.9C21.9,47.9,22.3,48.1,22.7,48z"/>
	<path class="st0" d="M41.5,51l-1.9-0.6c-1.7-0.6-3.6-0.4-5.2,0.5c-1.5,0.8-3.5,0.8-5,0c-1.6-0.9-3.5-1.1-5.2-0.5L22.3,51
		c-0.4,0.1-0.6,0.5-0.5,0.9c0.1,0.4,0.5,0.6,0.9,0.5l1.9-0.6c1.4-0.4,2.8-0.3,4.1,0.4c1,0.5,2.1,0.8,3.2,0.8c1.1,0,2.2-0.3,3.2-0.8
		c1.2-0.7,2.7-0.8,4.1-0.4l1.9,0.6c0.4,0.1,0.8-0.1,0.9-0.5C42.1,51.5,41.9,51.1,41.5,51z"/>
	<path class="st0" d="M41.5,55.3l-1.9-0.6c-1.7-0.6-3.6-0.4-5.2,0.5c-1.5,0.8-3.5,0.8-5,0c-1.6-0.9-3.5-1.1-5.2-0.5l-1.9,0.6
		c-0.4,0.1-0.6,0.5-0.5,0.9c0.1,0.4,0.5,0.6,0.9,0.5l1.9-0.6c1.4-0.4,2.8-0.3,4.1,0.4c1,0.5,2.1,0.8,3.2,0.8s2.2-0.3,3.2-0.8
		c1.2-0.7,2.7-0.8,4.1-0.4l1.9,0.6c0.4,0.1,0.8-0.1,0.9-0.5C42.1,55.9,41.9,55.5,41.5,55.3z"/>
</g>
<g id="cloudy">
	<g transform="translate(20,10)">
		<g>
			<path class="st1" d="M18.6,13.5c0-2.8-2.2-4.9-4.9-4.9c-0.6,0-1.1,0.1-1.7,0.3c-0.2-2-1.9-3.7-4-3.7c-2.2,0-4,1.8-4,4
				c0,0.5,0.1,1,0.2,1.4c-0.2-0.1-0.4-0.1-0.6-0.1c-2.2,0-4,1.8-4,4c0,2.2,1.7,4,3.9,4h10.3C16.5,18.3,18.6,16.2,18.6,13.5z"/>
		</g>
		<g>
			<path class="st2" d="M27.7,24.7c0-4.6-3.7-8.2-8.2-8.2c-1,0-1.9,0.2-2.8,0.5c-0.3-3.4-3.1-6.2-6.6-6.2c-3.7,0-6.7,3-6.7,6.7
				c0,0.8,0.2,1.6,0.4,2.3c-0.3-0.1-0.7-0.1-1-0.1c-3.7,0-6.7,3-6.7,6.7c0,3.6,2.9,6.6,6.5,6.7h17.2C24.2,32.6,27.7,29.1,27.7,24.7z
				"/>
		</g>
	</g>
</g>
</svg>
